<svg width="112" height="29" viewBox="0 0 112 29" fill="none" xmlns="http://www.w3.org/2000/svg">
<path d="M0.275568 28V1.81818H10.6051C12.5824 1.81818 14.2699 2.17187 15.6676 2.87926C17.0739 3.57812 18.1435 4.57102 18.8764 5.85795C19.6179 7.13636 19.9886 8.64062 19.9886 10.3707C19.9886 12.1094 19.6136 13.6051 18.8636 14.858C18.1136 16.1023 17.027 17.0568 15.6037 17.7216C14.1889 18.3864 12.4759 18.7188 10.4645 18.7188H3.5483V14.2699H9.5696C10.6264 14.2699 11.5043 14.125 12.2031 13.8352C12.902 13.5455 13.4219 13.1108 13.7628 12.5312C14.1122 11.9517 14.2869 11.2315 14.2869 10.3707C14.2869 9.50142 14.1122 8.76847 13.7628 8.17188C13.4219 7.57528 12.8977 7.12358 12.1903 6.81676C11.4915 6.50142 10.6094 6.34375 9.54403 6.34375H5.81108V28H0.275568ZM14.4148 16.0852L20.9219 28H14.8111L8.4446 16.0852H14.4148ZM32.354 28.3835C30.3683 28.3835 28.6509 27.9616 27.2021 27.1179C25.7617 26.2656 24.6495 25.081 23.8654 23.5639C23.0813 22.0384 22.6893 20.2699 22.6893 18.2585C22.6893 16.2301 23.0813 14.4574 23.8654 12.9403C24.6495 11.4148 25.7617 10.2301 27.2021 9.38636C28.6509 8.53409 30.3683 8.10795 32.354 8.10795C34.3398 8.10795 36.0529 8.53409 37.4933 9.38636C38.9421 10.2301 40.0586 11.4148 40.8427 12.9403C41.6268 14.4574 42.0188 16.2301 42.0188 18.2585C42.0188 20.2699 41.6268 22.0384 40.8427 23.5639C40.0586 25.081 38.9421 26.2656 37.4933 27.1179C36.0529 27.9616 34.3398 28.3835 32.354 28.3835ZM32.3796 24.1648C33.283 24.1648 34.0373 23.9091 34.6424 23.3977C35.2475 22.8778 35.7035 22.1705 36.0103 21.2756C36.3256 20.3807 36.4833 19.3622 36.4833 18.2202C36.4833 17.0781 36.3256 16.0597 36.0103 15.1648C35.7035 14.2699 35.2475 13.5625 34.6424 13.0426C34.0373 12.5227 33.283 12.2628 32.3796 12.2628C31.4677 12.2628 30.7006 12.5227 30.0785 13.0426C29.4648 13.5625 29.0004 14.2699 28.685 15.1648C28.3782 16.0597 28.2248 17.0781 28.2248 18.2202C28.2248 19.3622 28.3782 20.3807 28.685 21.2756C29.0004 22.1705 29.4648 22.8778 30.0785 23.3977C30.7006 23.9091 31.4677 24.1648 32.3796 24.1648ZM56.1197 8.36364V12.4545H44.0004V8.36364H56.1197ZM46.7745 28V6.9446C46.7745 5.52131 47.0515 4.34091 47.6055 3.40341C48.168 2.46591 48.935 1.76278 49.9066 1.29403C50.8782 0.825282 51.9819 0.590907 53.2177 0.590907C54.0529 0.590907 54.8157 0.654828 55.506 0.78267C56.2049 0.910511 56.7248 1.02557 57.0657 1.12784L56.0941 5.21875C55.881 5.15057 55.6168 5.08665 55.3015 5.02699C54.9947 4.96733 54.6793 4.9375 54.3555 4.9375C53.5543 4.9375 52.9961 5.125 52.6808 5.5C52.3654 5.86648 52.2077 6.3821 52.2077 7.04688V28H46.7745ZM67.6158 28.3835C65.63 28.3835 63.9126 27.9616 62.4638 27.1179C61.0234 26.2656 59.9112 25.081 59.1271 23.5639C58.343 22.0384 57.951 20.2699 57.951 18.2585C57.951 16.2301 58.343 14.4574 59.1271 12.9403C59.9112 11.4148 61.0234 10.2301 62.4638 9.38636C63.9126 8.53409 65.63 8.10795 67.6158 8.10795C69.6016 8.10795 71.3146 8.53409 72.755 9.38636C74.2038 10.2301 75.3203 11.4148 76.1044 12.9403C76.8885 14.4574 77.2805 16.2301 77.2805 18.2585C77.2805 20.2699 76.8885 22.0384 76.1044 23.5639C75.3203 25.081 74.2038 26.2656 72.755 27.1179C71.3146 27.9616 69.6016 28.3835 67.6158 28.3835ZM67.6413 24.1648C68.5447 24.1648 69.299 23.9091 69.9041 23.3977C70.5092 22.8778 70.9652 22.1705 71.272 21.2756C71.5874 20.3807 71.745 19.3622 71.745 18.2202C71.745 17.0781 71.5874 16.0597 71.272 15.1648C70.9652 14.2699 70.5092 13.5625 69.9041 13.0426C69.299 12.5227 68.5447 12.2628 67.6413 12.2628C66.7294 12.2628 65.9624 12.5227 65.3402 13.0426C64.7266 13.5625 64.2621 14.2699 63.9467 15.1648C63.6399 16.0597 63.4865 17.0781 63.4865 18.2202C63.4865 19.3622 63.6399 20.3807 63.9467 21.2756C64.2621 22.1705 64.7266 22.8778 65.3402 23.3977C65.9624 23.9091 66.7294 24.1648 67.6413 24.1648ZM91.2663 8.36364V12.4545H79.4411V8.36364H91.2663ZM82.1257 3.65909H87.5717V21.9659C87.5717 22.4687 87.6484 22.8608 87.8018 23.142C87.9553 23.4148 88.1683 23.6065 88.4411 23.7173C88.7223 23.8281 89.0462 23.8835 89.4126 23.8835C89.6683 23.8835 89.924 23.8622 90.1797 23.8196C90.4354 23.7685 90.6314 23.7301 90.7678 23.7045L91.6243 27.7571C91.3516 27.8423 90.968 27.9403 90.4737 28.0511C89.9794 28.1705 89.3786 28.2429 88.6712 28.2685C87.3587 28.3196 86.2081 28.1449 85.2195 27.7443C84.2393 27.3437 83.4766 26.7216 82.9311 25.8778C82.3857 25.0341 82.1172 23.9687 82.1257 22.6818V3.65909ZM100.413 28.3707C99.1605 28.3707 98.044 28.1534 97.0639 27.7188C96.0838 27.2756 95.3082 26.6236 94.7372 25.7628C94.1747 24.8935 93.8935 23.8111 93.8935 22.5156C93.8935 21.4247 94.0938 20.5085 94.4943 19.767C94.8949 19.0256 95.4403 18.429 96.1307 17.9773C96.821 17.5256 97.6051 17.1847 98.483 16.9545C99.3693 16.7244 100.298 16.5625 101.27 16.4688C102.412 16.3494 103.332 16.2386 104.031 16.1364C104.73 16.0256 105.237 15.8636 105.553 15.6506C105.868 15.4375 106.026 15.1222 106.026 14.7045V14.6278C106.026 13.8182 105.77 13.1918 105.259 12.7486C104.756 12.3054 104.04 12.0838 103.111 12.0838C102.131 12.0838 101.351 12.3011 100.771 12.7358C100.192 13.1619 99.8082 13.6989 99.6207 14.3466L94.5838 13.9375C94.8395 12.7443 95.3423 11.7131 96.0923 10.8438C96.8423 9.96591 97.8097 9.29261 98.9943 8.82386C100.188 8.34659 101.568 8.10795 103.136 8.10795C104.227 8.10795 105.271 8.2358 106.268 8.49148C107.274 8.74716 108.165 9.14347 108.94 9.6804C109.724 10.2173 110.342 10.9077 110.794 11.7514C111.246 12.5866 111.472 13.5881 111.472 14.7557V28H106.307V25.277H106.153C105.838 25.8906 105.416 26.4318 104.888 26.9006C104.359 27.3608 103.724 27.723 102.983 27.9872C102.241 28.2429 101.385 28.3707 100.413 28.3707ZM101.973 24.6122C102.774 24.6122 103.482 24.4545 104.095 24.1392C104.709 23.8153 105.19 23.3807 105.54 22.8352C105.889 22.2898 106.064 21.6719 106.064 20.9815V18.8977C105.893 19.0085 105.659 19.1108 105.361 19.2045C105.071 19.2898 104.743 19.3707 104.376 19.4474C104.01 19.5156 103.643 19.5795 103.277 19.6392C102.911 19.6903 102.578 19.7372 102.28 19.7798C101.641 19.8736 101.082 20.0227 100.605 20.2273C100.128 20.4318 99.7571 20.7088 99.4929 21.0582C99.2287 21.3991 99.0966 21.8253 99.0966 22.3366C99.0966 23.0781 99.3651 23.6449 99.902 24.0369C100.447 24.4205 101.138 24.6122 101.973 24.6122Z" fill="black"/>
</svg>
